# xmcd
#
# Track frame offsets:
#	150
#	16817
#	34203
#	50543
#	69890
#	89219
#	110498
#	127724
#	146489
#	161528
#	177269
#	199028
#	213536
#	228548
#	248483
#	268139
#	286032
#	302756
#	321405
#	337662
#
# Disc length: 4719 seconds
#
# Revision: 0
# Processed by: cddbd v1.5.1PL0 Copyright (c) Steve Scherf et al.
# Submitted via: dBpowerAMP V4.0
#
DISCID=19126d14
DTITLE=Various Artist - Back To Black Disc 8 Black Pop and Hip Hop Culture Part 1 1980-1983
DYEAR=1900
DGENRE=Vocal
TTITLE0=Diana Ross/Upside Down
TTITLE1=The Jacksons/Can You Feel It
TTITLE2=Kool and The Gang/Celebration
TTITLE3=Shalamar/I Can M ake You Feel Good
TTITLE4=Lionel Richie/All Night Long ( All Night)
TTITLE5=Patrice Rushen/Forget Me Nots
TTITLE6=Luther Vandross/Never Too much
TTITLE7=Quincy Jones/Razzamatazz
TTITLE8=Rick James/Superfreak
TTITLE9=The Sugarhill Gang/Rapper's Delight
TTITLE10=Afrika Bambaataa And The Soulsonic Force/Planet Rock
TTITLE11=Grandmaster Flash and The Furious Five/The Message
TTITLE12=Herbie Hancock/Rockit
TTITLE13=Rufus and Chaka Khan/Ain' Nobody
TTITLE14=Maze/Joy and Pain
TTITLE15=Marvin Gaye/Sexual Healing
TTITLE16=Randy Crawford/Rainy Night In Georgia
TTITLE17=Michael Jackson/One Day In Your Life
TTITLE18=Billy Preston and Syreeta/With You I'm Born Again
TTITLE19=Patti Austin and James Ingram/Baby Come To Me
EXTD=CD number 8 in  a 10 cd collection chronicling black music from 1900-1999
EXTT0=
EXTT1=
EXTT2=
EXTT3=
EXTT4=
EXTT5=
EXTT6=
EXTT7=
EXTT8=
EXTT9=
EXTT10=
EXTT11=
EXTT12=
EXTT13=
EXTT14=
EXTT15=
EXTT16=
EXTT17=
EXTT18=
EXTT19=
PLAYORDER=
